<?xml version="1.0" encoding="utf-8"?>
<!-- Designed by Vexels.com - 2016 All Rights Reserved - https://vexels.com/terms-and-conditions/  -->

<svg version="1.0" id="Capa_1" xmlns="http://www.w3.org/2000/svg" xmlns:xlink="http://www.w3.org/1999/xlink" x="0px" y="0px"
	 width="1200px" height="1200px" viewBox="0 0 1200 1200" enable-background="new 0 0 1200 1200" xml:space="preserve">
<g>
	<path fill="#F37E83" d="M1176.459,599.967c0,318.386-258.097,576.483-576.45,576.483c-318.386,0-576.467-258.097-576.467-576.483
		c0-318.328,258.081-576.417,576.467-576.417C918.362,23.55,1176.459,281.639,1176.459,599.967z"/>
	<path fill="#B14D5A" d="M1163.296,722.423l-132.251-147.121c-39.501-9.113-49.151-24.502-97.815-24.242
		c-30.03,0.147-38.022,14.487-67.312,14.568L649.501,437.986c-10.097-0.732-29.982-18.958-40.225-20.218
		c-48.558-2.755-35.958,0.967-84.637-0.967c-55.062-2.195-99.546,21.226-154.705,23.958c-33.51,1.667-58.02,40.217-91.571,41.623
		c-12.024,31.396-109.602,32.608-109.602,32.608l56.882,78.393c-4.39,15.641-66.085,22.104-72.15,36.762
		c-2.366,1.334,2.78,65.899,2.78,65.899l147.486,171.452l265.007,308.085c10.348,0.554,20.754,0.87,31.242,0.87
		C876.331,1176.45,1107.137,981.959,1163.296,722.423z"/>
	<g>
		<path fill="#EFE6CC" d="M780.842,704.774c0,46.989,38.079,85.084,85.084,85.084c46.973,0,85.068-38.095,85.068-85.084
			c0-46.956-38.095-85.068-85.068-85.068C818.921,619.706,780.842,657.818,780.842,704.774z M813.555,704.774
			c0-28.909,23.43-52.355,52.37-52.355c28.909,0,52.355,23.446,52.355,52.355c0,28.941-23.446,52.37-52.355,52.37
			C836.985,757.144,813.555,733.715,813.555,704.774z"/>
		<path fill="#EFE6CC" d="M147.387,654.729c0.016,0.048,0.016,0.113,0.032,0.162l0,0
			C147.403,654.842,147.403,654.777,147.387,654.729z"/>
		<path fill="#EFE6CC" d="M178.15,650.793c0.049,0.017,0.097,0.032,0.13,0.082c-0.032-0.049-0.081-0.065-0.113-0.082
			c0.698,0.423,1.382,0.878,2.065,1.349c-7.511,1.919-18.308,3.431-32.811,2.748c0.536,4.374,1.22,8.39,1.61,12.211l0,0
			c0.178,1.951,0.276,3.821,0.26,5.674c0,0.032,0,0.082,0,0.098c-0.017,0.862-0.065,1.707-0.147,2.552c0,0.082,0,0.162,0,0.26
			c-0.113,0.895-0.244,1.837-0.439,2.748c-2.049,9.626,0.78,20.08,10.552,25.787c9.771,5.723,33.234,10.536,55.915,12.812
			c25.543,12.016,19.608,7.284,19.608,7.284s-1.089-13.576,0-29.802c1.09-16.161,4.732-32.389,8.048-42.144
			c2.309-5.707,5.626-12.439,10.634-20.146c12.015-18.373,33.819-29.12,64.841-31.883c4.862-0.44,9.886-0.667,14.926-0.667
			c26.308,0,51.98,5.87,67.004,15.332c13.821,8.682,28.73,37.77,33.819,54.907c0.017,0.097,2.472,15.739,2.472,28.763
			c0,13.072,0,30.697,0,30.697h331.035c0,0-1.317-37.672,0-56.712c2.39-10.845,7.691-26.974,17.365-43.493
			c13.137-22.471,37.461-32.047,81.246-32.047c42.762,0,64.028,16.227,80.645,33.754c13.642,14.389,18.243,37.819,20.584,53.249
			c1.853,15.056,2.114,36.323,2.341,56.37c7.691-0.39,15.511-4.292,19.576-9.983c13.512,1.756,33.234-8.797,44.713-15.528
			c4.211-2.487,6.845-5.951,8.504-9.365c-0.455,0.325-0.911,0.554-1.399,0.764c3.74-1.658,6.731-5.934,7.934-12.942
			c1.627-9.463,4.244-42.437,4.244-42.437l-6.861-2.959c0,0-4.553-14.015-7.17-23.51c1.154-7.267,1.317-14.389,0.942-20.974
			c-8.763,0.374-26.551,1.106-37.526,1.268c-15.023,0.163-38.859-13.918-64.663-28.941c24.649-18.097,43.428-12.748,65.314-6.52
			c14.145,3.999,26.892,10.438,34.176,14.519c-1.496-6.747-2.975-10.959-2.975-10.959s-31.852-22.031-133.26-39.672
			c-101.392-17.625-114.725-22.031-114.725-22.031s-53.687-37.234-78.791-52.907c-25.104-15.674-61.053-43.119-105.636-46.55
			c-44.582-3.414-118.187-1.431-175.76,4.911c-57.574,6.373-131.325,46.874-161.876,59.264
			c-30.566,12.405-58.288,26.437-65.557,26.437c-7.251,0-24.258,0-24.258,0s-4.082,4.276-11.008,11.105
			c2.325,4.519,3.594,10.503,4.471,17.934c0-0.017,0-0.032-0.016-0.065l16.161-14.503c0,0,22.209,0.976,41.379,3.187
			c19.121,2.194,32.112,8.081,17.478,19.348c-14.666,11.267-35.965,24.486-35.965,24.486s-23.381,1.74-37.413,1.805
			c-1.495,15.804-7.674,31.477-13.04,37.314c-6.617,7.187-10.08,11.446-10.08,17.966c0,6.52,0,23.836,0,23.836
			s5.674-0.326,16.682,0.309C167.906,645.396,173.044,647.607,178.15,650.793z M719.008,515.859
			c4.016-2.731,6.943-10.666,6.943-15.674v-0.032c7.381,6.211,13.852,11.918,18.828,16.438
			C737.95,516.396,729.056,516.168,719.008,515.859z M539.784,429.523c11.707-0.634,22.275-0.991,30.779-0.991
			c2.114,0,4.097,0.016,5.935,0.065c34.843,0.894,65.264,11.885,105.001,37.949c6.878,4.504,13.723,9.381,20.324,14.357
			c-4.357,1.155-7.609,5.528-7.609,10.812v14.015c0,4.082,1.951,7.61,4.829,9.512c-31.803-0.991-116.318-5.739-136.56-7.089
			L539.784,429.523z M520.078,505.34c-40.907-2.7-86.466-5.593-118.984-7.463l-2.568-52.842
			c24.128-4.975,72.157-10.503,114.366-13.739L520.078,505.34z M359.26,495.828l19.819-46.062c3.918-1.138,7.934-2.146,11.967-3.089
			c0.683,14.113,1.772,36.648,2.504,50.777c-15.723-0.911-27.575-1.479-32.99-1.578C360.122,495.861,359.699,495.844,359.26,495.828
			z M319.88,475.829c3.772-5.056,22.258-14.34,46.224-22.144l-17.56,40.892c-10.162-2.195-15.478-7.04-21.803-12.78
			C324.611,479.846,322.384,477.878,319.88,475.829z"/>
		<path fill="#EFE6CC" d="M249.689,704.774c0,46.989,38.095,85.084,85.085,85.084c46.989,0,85.084-38.095,85.084-85.084
			c0-46.956-38.095-85.068-85.084-85.068C287.784,619.706,249.689,657.818,249.689,704.774z M282.403,704.774
			c0-28.909,23.462-52.355,52.371-52.355c28.925,0,52.37,23.446,52.37,52.355c0,28.941-23.446,52.37-52.37,52.37
			C305.865,757.144,282.403,733.715,282.403,704.774z"/>
	</g>
</g>
</svg>
